<svg xmlns="http://www.w3.org/2000/svg" viewBox="0 0 64 64" fill="none">
  <g transform="translate(5 6)">
    <path
      d="M12.4 28.8c0-3.3 2.5-5.9 5.9-6.4 9.6-1.4 18.9-4.7 28.2-11.8 2.5-1.9 6.2-.1 6.2 3.1v23.8c0 3.1-3.7 5-6.2 3.1-9.3-7.1-18.6-10.4-28.2-11.8-3.4-.5-5.9-3.1-5.9-6.4v6.4Z"
      fill="#FCFAF6"
      stroke="#D61E72"
      stroke-width="2.6"
      stroke-linejoin="round"
    />
    <path
      d="M18.1 33.1h8.3l2.4 16.2c.3 1.8-1.1 3.5-3 3.5h-2.4c-1.5 0-2.7-1-3-2.5l-2.3-17.2Z"
      fill="#FCFAF6"
      stroke="#D61E72"
      stroke-width="2.6"
      stroke-linejoin="round"
    />
    <path
      d="M9.9 25.9c1-1 2.3-1.6 3.7-1.6h3.7v12.8h-3.7c-1.4 0-2.7-.6-3.7-1.6-2.8-2.7-2.8-6.9 0-9.6Z"
      fill="#FCFAF6"
      stroke="#D61E72"
      stroke-width="2.6"
      stroke-linejoin="round"
    />
    <path
      d="M47.2 18.1 38 29.1V14.6l9.2 3.5Z"
      fill="#2E2528"
      stroke="#2E2528"
      stroke-width=".5"
      stroke-linejoin="round"
    />
    <path d="M39 22.6h9.6" stroke="#FCFAF6" stroke-width="1.1" stroke-linecap="round" />
    <path d="M39.3 24.5h8.9" stroke="#FCFAF6" stroke-width="1.1" stroke-linecap="round" />
    <path d="m46.7 12.7 1.2 2.8 2.8 1.2-2.8 1.2-1.2 2.8-1.2-2.8-2.8-1.2 2.8-1.2 1.2-2.8Z" fill="#F5E55B" stroke="#1D1719" stroke-width=".4" />
    <path d="m50.8 14.5 1.5 3.6 3.6 1.5-3.6 1.5-1.5 3.6-1.5-3.6-3.6-1.5 3.6-1.5 1.5-3.6Z" fill="#F5E55B" stroke="#1D1719" stroke-width=".4" />
    <path d="m55 19.8 2.3 5.6 5.6 2.3-5.6 2.3-2.3 5.6-2.3-5.6-5.6-2.3 5.6-2.3 2.3-5.6Z" fill="#F5E55B" stroke="#1D1719" stroke-width=".4" />
    <path d="m49.9 28.2 2.1 5.1 5.1 2.1-5.1 2.1-2.1 5.1-2.1-5.1-5.1-2.1 5.1-2.1 2.1-5.1Z" fill="#F5E55B" stroke="#1D1719" stroke-width=".4" />
  </g>
</svg>
